<svg xmlns="http://www.w3.org/2000/svg" viewBox="0 0 256 256" role="img" aria-label="WinPaste app icon">
  <defs>
    <linearGradient id="bg" x1="31" y1="22" x2="223" y2="232" gradientUnits="userSpaceOnUse">
      <stop offset="0" stop-color="#33D5C8"/>
      <stop offset="0.5" stop-color="#2578DA"/>
      <stop offset="1" stop-color="#191D4F"/>
    </linearGradient>
    <linearGradient id="shine" x1="53" y1="29" x2="197" y2="185" gradientUnits="userSpaceOnUse">
      <stop offset="0" stop-color="#FFFFFF" stop-opacity="0.46"/>
      <stop offset="0.62" stop-color="#FFFFFF" stop-opacity="0"/>
    </linearGradient>
    <linearGradient id="letterFill" x1="53" y1="72" x2="213" y2="184" gradientUnits="userSpaceOnUse">
      <stop offset="0" stop-color="#FFFFFF"/>
      <stop offset="1" stop-color="#DFFBFF"/>
    </linearGradient>
    <filter id="shadow" x="-20%" y="-20%" width="140%" height="140%">
      <feDropShadow dx="0" dy="14" stdDeviation="16" flood-color="#06111F" flood-opacity="0.28"/>
    </filter>
  </defs>

  <rect x="16" y="16" width="224" height="224" rx="54" fill="url(#bg)" filter="url(#shadow)"/>
  <rect x="29" y="29" width="198" height="198" rx="43" fill="none" stroke="#FFFFFF" stroke-opacity="0.23" stroke-width="3"/>
  <path d="M54 66C80 43 128 35 169 49C199 59 217 82 219 111C221 147 197 175 163 185C124 196 83 187 56 165C44 155 37 139 38 122C39 100 44 79 54 66Z" fill="url(#shine)"/>

  <g transform="translate(0 5)" fill="#051126" opacity="0.34">
    <path d="M41 83H61L78 153L61 171Z"/>
    <path d="M73 171H94L108 83H88Z"/>
    <path d="M98 83H118L135 153L118 171Z"/>
    <path d="M130 171H151L165 83H145Z"/>
    <rect x="145" y="77" width="27" height="109" rx="13"/>
    <path fill-rule="evenodd" d="M161 77H195C216 77 229 91 229 112C229 134 214 148 191 148H161V127H190C199 127 205 121 205 112C205 103 199 97 190 97H161ZM176 97V127H190C199 127 205 121 205 112C205 103 199 97 190 97Z"/>
  </g>

  <g fill="url(#letterFill)" stroke="#E8F8FF" stroke-opacity="0.22" stroke-width="1.5" stroke-linejoin="round">
    <path d="M41 83H61L78 153L61 171Z"/>
    <path d="M73 171H94L108 83H88Z"/>
    <path d="M98 83H118L135 153L118 171Z"/>
    <path d="M130 171H151L165 83H145Z"/>
    <rect x="145" y="77" width="27" height="109" rx="13"/>
    <path fill-rule="evenodd" d="M161 77H195C216 77 229 91 229 112C229 134 214 148 191 148H161V127H190C199 127 205 121 205 112C205 103 199 97 190 97H161ZM176 97V127H190C199 127 205 121 205 112C205 103 199 97 190 97Z"/>
  </g>
</svg>
